<svg width="45" height="17" xmlns="http://www.w3.org/2000/svg" xmlns:xlink="http://www.w3.org/1999/xlink">
    <defs>
        <path id="a" d="M0 0h44.326v15.6H0z"/>
    </defs>
    <g transform="translate(.211 .8)" fill="none" fill-rule="evenodd">
        <mask id="b" fill="#fff">
            <use xlink:href="#a"/>
        </mask>
        <g fill-rule="nonzero" mask="url(#b)">
            <path d="M43.212 14.2H1.436a.566.566 0 0 0-.089-.024 1.123 1.123 0 0 1-.976-.839l-.047-.156V1.22a.63.63 0 0 0 .027-.076C.43.693.774.339 1.22.246c.071-.018.144-.03.216-.046h41.776c.029.01.058.019.088.024.47.047.86.382.977.839.014.052.031.104.047.156V13.18a.637.637 0 0 0-.028.076 1.112 1.112 0 0 1-.868.897c-.072.018-.144.03-.216.046zM27.03 7.475h-.033l-.038-.12-.616-2.076a.534.534 0 0 0-.518-.41c-.28-.007-.56-.004-.84 0a.163.163 0 0 0-.18.186c0 .063.008.125.025.186.034.121.075.24.114.361l1.132 3.527c.066.25.3.42.558.405h.52c.307 0 .497-.137.59-.43.245-.774.489-1.55.731-2.325.012-.038.027-.074.052-.142l.054.156.727 2.315a.56.56 0 0 0 .581.425h.509c.303 0 .488-.132.582-.42.35-1.086.698-2.171 1.046-3.257.075-.236.156-.472.216-.713.048-.188-.034-.275-.227-.276h-.685c-.365 0-.541.133-.644.483l-.536 1.816c-.031.104-.065.208-.098.31a.567.567 0 0 1-.088-.194c-.198-.678-.395-1.356-.595-2.033-.078-.264-.24-.381-.513-.383h-.639c-.304 0-.454.111-.542.407-.123.412-.242.825-.362 1.238l-.283.964zm-3.981 1.684c.006.038.01.053.011.068.014.235.089.306.323.306h.686c.208 0 .293-.086.293-.296V6.573a1.826 1.826 0 0 0-.186-.835c-.246-.488-.668-.74-1.178-.869-.47-.118-.946-.105-1.422-.067-.343.018-.68.094-.998.227-.387.172-.623.456-.655.893-.016.22.084.338.302.34h.556a.617.617 0 0 0 .49-.22.77.77 0 0 1 .2-.161c.194-.1.411-.147.629-.137.55.003.773.211.83.754.013.112-.02.146-.13.145-.438-.005-.875-.003-1.313-.002a2.57 2.57 0 0 0-.97.176c-.577.234-.908.646-.927 1.286-.016.57.29 1.043.852 1.304.304.133.632.205.964.213a2.492 2.492 0 0 0 1.45-.342c.06-.036.119-.073.193-.12zm16.173.024c-.047.233-.15.45-.3.635a.676.676 0 0 1-.651.223 4.724 4.724 0 0 0-.54-.056.242.242 0 0 0-.267.264c-.003.138-.001.276 0 .414 0 .188.077.292.267.312.372.038.745.081 1.118.085a1.444 1.444 0 0 0 1.364-.82c.16-.294.29-.604.385-.925.393-1.381.765-2.768 1.143-4.154.052-.191-.03-.294-.231-.294a96.314 96.314 0 0 0-.792 0 .373.373 0 0 0-.384.288l-.076.273-.715 2.602c-.026.095-.069.118-.16.097a.625.625 0 0 1-.359-.234 2.236 2.236 0 0 1-.36-.741c-.204-.656-.4-1.313-.6-1.97a.405.405 0 0 0-.418-.315 69.475 69.475 0 0 0-.804 0c-.187.001-.264.106-.21.288.221.736.439 1.474.668 2.209.12.422.316.82.577 1.172.231.316.575.53.96.597.12.021.242.032.385.05zM16.032 7.19h-.007v2.025c0 .239.08.317.321.318h.78c.249 0 .326-.078.326-.326 0-.817.002-1.634-.002-2.451 0-.11.033-.142.141-.14.445.005.89.002 1.336 0 .19 0 .285-.094.29-.282.002-.142 0-.284 0-.427-.001-.231-.082-.311-.315-.312-.437 0-.875-.003-1.313.002-.11.002-.148-.038-.138-.144.012-.118.012-.237.027-.355.05-.393.208-.599.541-.677a2.515 2.515 0 0 1 1.055-.04c.132.022.266.034.4.034.187.003.283-.096.288-.283.003-.13.002-.26 0-.39 0-.188-.08-.286-.265-.32a4.887 4.887 0 0 0-.445-.058c-.583-.049-1.166-.056-1.74.082-.525.126-.941.402-1.12.934-.088.257-.14.525-.152.797-.022.67-.008 1.342-.008 2.013zM34.29 5.388c0-.102.002-.176 0-.25a.25.25 0 0 0-.275-.27 72.012 72.012 0 0 0-.875 0c-.189 0-.284.094-.284.283V9.25c0 .19.096.283.285.284.271.002.543.001.816 0 .253 0 .334-.079.334-.33 0-.782.01-1.564-.007-2.345a.68.68 0 0 1 .25-.573c.288-.257.607-.4 1-.362.197.017.394.024.59.02a.238.238 0 0 0 .264-.257c.006-.217.006-.434 0-.651a.24.24 0 0 0-.253-.256c-.538-.006-1.052.088-1.513.386-.102.066-.202.135-.332.223z" fill="#FFD328"/>
            <path d="m27.03 7.475.283-.963c.12-.413.239-.826.362-1.239.088-.295.239-.406.543-.406h.638c.273 0 .436.119.513.382.2.677.397 1.356.595 2.033.017.07.047.136.089.195.032-.103.066-.206.097-.31.18-.605.358-1.21.536-1.816.103-.35.28-.483.644-.484h.686c.192.001.274.089.227.277-.06.24-.141.476-.217.713-.348 1.085-.696 2.17-1.046 3.256-.093.289-.279.42-.582.421h-.509a.56.56 0 0 1-.58-.425c-.244-.772-.486-1.543-.728-2.315-.012-.04-.028-.08-.054-.156-.024.067-.04.104-.051.142l-.732 2.325c-.093.292-.283.429-.59.43h-.52a.545.545 0 0 1-.557-.406c-.38-1.175-.757-2.35-1.133-3.526-.038-.12-.08-.24-.113-.362a.688.688 0 0 1-.027-.186.164.164 0 0 1 .182-.186c.28-.003.56-.006.84.001.246 0 .46.17.517.41.207.692.412 1.384.616 2.076l.039.12.032-.001zM23.049 9.159l-.193.119c-.438.259-.944.378-1.45.341a2.543 2.543 0 0 1-.964-.212c-.562-.261-.868-.735-.852-1.304.02-.64.35-1.052.926-1.287.31-.12.639-.18.971-.175.437-.001.875-.003 1.312.001.111.002.143-.033.132-.144-.059-.543-.282-.751-.831-.755a1.246 1.246 0 0 0-.629.138.77.77 0 0 0-.2.161.617.617 0 0 1-.49.22h-.556c-.218-.002-.319-.12-.302-.34.032-.437.268-.721.655-.894.317-.132.655-.208.998-.226.477-.038.953-.05 1.422.067.51.128.932.38 1.179.869.127.26.19.546.186.835v2.664c0 .21-.086.295-.294.296-.228.002-.457.001-.686 0-.234 0-.308-.071-.322-.306l-.012-.068zm-.845-1.554v.007c-.216 0-.433-.01-.649.003a.53.53 0 0 0-.484.306.497.497 0 0 0 .38.7c.525.105.996-.06 1.437-.33.03-.029.047-.069.046-.11.005-.154-.001-.308.004-.461.002-.089-.034-.117-.12-.116-.204.004-.409.001-.614.001zM39.222 9.183c-.143-.018-.265-.029-.384-.05a1.513 1.513 0 0 1-.961-.596 3.658 3.658 0 0 1-.577-1.173c-.23-.734-.447-1.472-.668-2.21-.054-.18.023-.286.21-.287.268-.002.536-.001.804 0a.405.405 0 0 1 .417.315c.2.657.397 1.315.6 1.97.074.268.196.519.361.741.088.118.216.201.359.234.091.021.134-.002.16-.096.236-.868.474-1.736.715-2.602l.076-.274a.373.373 0 0 1 .384-.288h.792c.202 0 .283.103.231.295-.378 1.385-.75 2.772-1.143 4.153a4.837 4.837 0 0 1-.385.926c-.25.522-.787.844-1.364.82-.373-.004-.746-.047-1.118-.086-.19-.02-.267-.124-.268-.312 0-.138-.002-.276 0-.414a.242.242 0 0 1 .269-.263c.18.008.36.027.539.056.24.05.49-.036.65-.224.15-.184.254-.402.301-.635zM16.032 7.191c0-.67-.014-1.342.007-2.013.013-.271.064-.54.153-.797.179-.532.594-.807 1.12-.934.574-.137 1.156-.13 1.74-.082.149.013.297.033.445.06.186.032.264.13.265.318.001.13.003.26 0 .39-.005.188-.101.286-.289.283-.133 0-.267-.011-.399-.034a2.515 2.515 0 0 0-1.055.04c-.334.079-.492.285-.541.678-.015.117-.015.236-.027.354-.01.106.027.146.138.145.438-.006.875-.003 1.313-.002.233 0 .313.08.315.312 0 .142.002.284-.001.426-.004.188-.1.283-.289.283-.445.002-.89.004-1.336-.001-.108-.002-.142.031-.141.14.004.817.002 1.635.002 2.452 0 .247-.078.325-.326.325h-.78c-.241 0-.321-.079-.321-.317V7.192h.007zM34.29 5.388c.129-.088.23-.157.33-.223.462-.298.976-.392 1.513-.386a.24.24 0 0 1 .254.256c.006.217.006.434 0 .65a.239.239 0 0 1-.263.258 5.654 5.654 0 0 1-.59-.02c-.394-.039-.713.105-1.002.361a.68.68 0 0 0-.249.574c.018.78.007 1.563.006 2.344 0 .252-.08.331-.334.332h-.816c-.189-.002-.284-.096-.284-.285V5.15c0-.189.095-.284.284-.284.292-.002.584-.002.875 0a.25.25 0 0 1 .275.27c.002.075 0 .149 0 .25z" fill="#006E96"/>
            <path d="M22.204 7.605c.205 0 .41.003.614-.001.086-.002.122.027.12.115-.005.154.001.308-.004.461a.152.152 0 0 1-.046.11c-.442.27-.913.435-1.436.331a.496.496 0 0 1-.381-.7.53.53 0 0 1 .484-.307c.216-.013.433-.003.65-.003v-.006z" fill="#FFD328"/>
            <g>
                <path d="M13.808 7.156A5.524 5.524 0 0 1 3.18 9.284a5.538 5.538 0 0 1 2.02-6.72 5.52 5.52 0 0 1 6.977.67 5.533 5.533 0 0 1 1.63 3.922z" fill="#FFF"/>
                <path d="m10.848 9.504-.744-.372S8.836 11.444 6.62 12.43a5.51 5.51 0 0 1-2.098-1.228c.485-.07 1.272-.32 2.1-1.136C7.977 8.733 8.287 8 8.287 8l-.58-.387a.29.29 0 0 1 .065-.516l2.551-.89a.29.29 0 0 1 .383.236l.379 2.893a.165.165 0 0 1-.236.168zM11.616 6.303a.168.168 0 0 1-.322-.033l-.17-.979-1.26.393a.168.168 0 0 1-.202-.232c.254-.551.454-1.126.598-1.715.14-.59.108-1.209-.094-1.781.755.274 1.442.71 2.011 1.278.102 1.158-.294 2.392-.56 3.07z" fill="#006E96"/>
            </g>
        </g>
    </g>
</svg>
