<svg width="41" height="24" xmlns="http://www.w3.org/2000/svg">
    <g fill="none" fill-rule="evenodd">
        <rect stroke="#D2D7E0" stroke-width=".75" fill="#FFF" x=".375" y=".375" width="40.25" height="23.25" rx="4"/>
        <path d="m20 8-1.154 8H17l1.155-8H20zm4.208 0c.775 0 1.397.17 1.792.325l-.27 1.68-.18-.088a3.511 3.511 0 0 0-1.497-.298c-.783 0-1.145.345-1.145.667-.005.364.424.602 1.122.961 1.154.553 1.687 1.222 1.68 2.106C25.694 14.96 24.329 16 22.228 16c-.897-.01-1.762-.197-2.228-.413l.28-1.735.257.124c.657.289 1.083.406 1.883.406.575 0 1.192-.238 1.197-.757.003-.34-.259-.582-1.038-.962-.758-.37-1.763-.991-1.75-2.105C20.838 9.052 22.23 8 24.208 8zm7.215 0L33 16h-1.81s-.178-.92-.236-1.2h-.856l-.206-.001h-.419l-.203-.001h-.369l-.155-.001h-.289c-.03.083-.096.28-.168.491l-.087.254-.155.458H26l2.895-7.336c.204-.522.554-.664 1.021-.664h1.507zM17 8l-3.124 7.999-2.1.001L10 8.991c1.26.695 2.386 2.082 2.748 3.362l.208 1.11L14.898 8H17zm13.28 2-.074.178-.08.19c-.092.217-.175.409-.166.395 0 0-.21.493-.44 1.026l-.137.321L29 13h2c-.095-.4-.557-2.31-.557-2.31zM11.346 8c.447.016.808.154.933.62L13 12c-.71-1.768-2.418-3.238-5-3.848L8.027 8z" fill="#26337A"/>
    </g>
</svg>
